<svg width="33" height="35" viewBox="0 0 33 35" fill="none" xmlns="http://www.w3.org/2000/svg">
<path d="M20.6384 11.25C21.751 11.25 22.8385 10.9201 23.7635 10.302C24.6886 9.68394 25.4095 8.80543 25.8353 7.7776C26.261 6.74976 26.3724 5.61876 26.1554 4.52762C25.9383 3.43648 25.4026 2.4342 24.6159 1.64753C23.8293 0.860856 22.827 0.325127 21.7358 0.108085C20.6447 -0.108957 19.5137 0.0024372 18.4859 0.42818C17.458 0.853923 16.5795 1.57489 15.9614 2.49992C15.3433 3.42495 15.0134 4.51248 15.0134 5.625C15.0134 7.11685 15.6061 8.54759 16.661 9.60248C17.7159 10.6574 19.1466 11.25 20.6384 11.25ZM20.6384 3.75C21.0093 3.75 21.3718 3.85997 21.6801 4.066C21.9885 4.27202 22.2288 4.56486 22.3707 4.90747C22.5126 5.25008 22.5498 5.62708 22.4774 5.9908C22.4051 6.35451 22.2265 6.6886 21.9643 6.95083C21.702 7.21305 21.368 7.39163 21.0042 7.46397C20.6405 7.53632 20.2635 7.49919 19.9209 7.35728C19.5783 7.21536 19.2855 6.97504 19.0794 6.6667C18.8734 6.35835 18.7634 5.99584 18.7634 5.625C18.7634 5.12772 18.961 4.65081 19.3126 4.29918C19.6643 3.94755 20.1412 3.75 20.6384 3.75ZM32.5134 18.3438C32.5135 18.7028 32.4104 19.0543 32.2165 19.3565C32.0227 19.6587 31.7461 19.8988 31.4197 20.0484C30.3419 20.4299 29.2082 20.6295 28.065 20.6391C25.8775 20.6391 22.7134 20.0422 18.7259 17.6703C18.2639 18.7982 17.7279 19.8944 17.1213 20.9516C20.8134 22.3172 26.2634 25.5938 26.2634 33.125C26.2634 33.6223 26.0659 34.0992 25.7143 34.4508C25.3626 34.8025 24.8857 35 24.3884 35C23.8912 35 23.4143 34.8025 23.0626 34.4508C22.711 34.0992 22.5134 33.6223 22.5134 33.125C22.5134 30.2047 21.4275 27.9594 19.1916 26.2594C17.7603 25.1656 16.1369 24.5406 14.9056 24.175C14.7791 24.3313 14.6494 24.4875 14.515 24.6359C11.39 28.2094 7.51188 30.0672 3.22595 30.0672C2.71717 30.0673 2.20871 30.0417 1.70251 29.9906C1.45613 29.9679 1.21669 29.8966 0.99799 29.7808C0.779293 29.6651 0.585666 29.5072 0.428269 29.3163C0.270873 29.1254 0.15282 28.9052 0.0809165 28.6685C0.00901277 28.4317 -0.0153199 28.1831 0.00932088 27.9369C0.0339617 27.6907 0.107089 27.4518 0.224487 27.234C0.341884 27.0161 0.501231 26.8237 0.693342 26.6678C0.885453 26.5119 1.10653 26.3955 1.34382 26.3254C1.58112 26.2553 1.82994 26.2329 2.07595 26.2594C10.2478 27.075 14.1822 19.0844 15.4806 15.6734C10.1384 12.8844 6.84782 15.4344 6.81188 15.4688C6.4224 15.7613 5.93433 15.8909 5.45102 15.8299C4.96771 15.7689 4.5271 15.5222 4.22249 15.1421C3.91787 14.7619 3.77317 14.2781 3.81902 13.7932C3.86487 13.3082 4.09767 12.8601 4.46813 12.5438C4.71345 12.3438 10.6384 7.725 19.1931 13.5344C25.9275 18.1141 29.8338 16.6469 29.8963 16.6219C30.1813 16.499 30.4923 16.4488 30.8015 16.4758C31.1106 16.5028 31.4083 16.6061 31.6677 16.7765C31.9271 16.9468 32.1402 17.1789 32.2878 17.4519C32.4354 17.7249 32.5129 18.0303 32.5134 18.3406V18.3438Z" fill="#3496CE"/>
</svg>
