<svg width="56" height="56" viewBox="0 0 56 56" fill="none" xmlns="http://www.w3.org/2000/svg">
<g clip-path="url(#clip0_728_689)">
<path d="M28 0C20.5756 0 13.4487 2.95181 8.20312 8.20094C2.95213 13.4522 0.00150259 20.5738 0 28C0 35.4231 2.95312 42.5499 8.20312 47.7991C13.4487 53.0482 20.5756 56 28 56C35.4244 56 42.5513 53.0482 47.7969 47.7991C53.0469 42.5499 56 35.4231 56 28C56 20.5769 53.0469 13.4501 47.7969 8.20094C42.5513 2.95181 35.4244 0 28 0Z" fill="#3193CC"/>
<path fill-rule="evenodd" clip-rule="evenodd" d="M28.9999 12.833C21.1757 12.833 14.8333 19.1754 14.8333 26.9997C14.8333 29.6772 15.577 32.1847 16.8704 34.321L15.6068 38.6163C15.5342 38.863 15.5294 39.1246 15.5929 39.3737C15.6564 39.6228 15.7859 39.8502 15.9677 40.0319C16.1494 40.2137 16.3768 40.3432 16.6259 40.4067C16.875 40.4702 17.1366 40.4654 17.3833 40.3928L21.6786 39.1292C23.8868 40.465 26.4191 41.1696 28.9999 41.1663C36.8242 41.1663 43.1666 34.8239 43.1666 26.9997C43.1666 19.1754 36.8242 12.833 28.9999 12.833ZM25.7954 30.2056C28.6613 33.0701 31.3969 33.4483 32.3631 33.4838C33.8322 33.5376 35.263 32.4156 35.8198 31.1137C35.8894 30.9516 35.9146 30.7738 35.8927 30.5988C35.8708 30.4237 35.8026 30.2577 35.6951 30.1178C34.9188 29.1261 33.869 28.4135 32.8433 27.7052C32.6293 27.5568 32.366 27.4971 32.109 27.5389C31.8519 27.5806 31.621 27.7205 31.4649 27.929L30.6149 29.2253C30.57 29.2947 30.5004 29.3444 30.4201 29.3644C30.3399 29.3844 30.2551 29.3732 30.1828 29.3329C29.6063 29.0028 28.7662 28.4418 28.1627 27.8383C27.5592 27.2348 27.0322 26.433 26.7361 25.8933C26.7003 25.8245 26.6901 25.7452 26.7075 25.6696C26.7249 25.5941 26.7687 25.5272 26.831 25.481L28.14 24.5092C28.3274 24.3471 28.4483 24.1216 28.4797 23.8759C28.511 23.6301 28.4506 23.3815 28.31 23.1775C27.6753 22.2482 26.9358 21.0667 25.8634 20.2833C25.7247 20.1836 25.5626 20.1215 25.3929 20.1028C25.2231 20.0842 25.0514 20.1098 24.8944 20.177C23.5911 20.7352 22.4634 22.166 22.5173 23.6379C22.5527 24.6041 22.9309 27.3397 25.7954 30.2056Z" fill="white"/>
</g>
<defs>
<clipPath id="clip0_728_689">
<rect width="56" height="56" fill="white"/>
</clipPath>
</defs>
</svg>
