<svg width="56" height="56" viewBox="0 0 56 56" fill="none" xmlns="http://www.w3.org/2000/svg">
<g clip-path="url(#clip0_728_790)">
<path d="M28 0C20.5756 0 13.4487 2.95181 8.20312 8.20094C2.95213 13.4522 0.00150259 20.5738 0 28C0 35.4231 2.95312 42.5499 8.20312 47.7991C13.4487 53.0482 20.5756 56 28 56C35.4244 56 42.5513 53.0482 47.7969 47.7991C53.0469 42.5499 56 35.4231 56 28C56 20.5769 53.0469 13.4501 47.7969 8.20094C42.5513 2.95181 35.4244 0 28 0Z" fill="#3193CC"/>
<path d="M43.95 36.1751C43.8585 36.0251 43.2975 34.8056 40.5975 32.2991C37.77 29.6741 38.1495 30.1001 41.5545 25.5641C43.629 22.7996 44.457 21.1121 44.1975 20.3891C43.9515 19.7021 42.4275 19.8836 42.4275 19.8836L37.3545 19.9136C37.3545 19.9136 36.9795 19.8626 36.699 20.0291C36.426 20.1941 36.252 20.5736 36.252 20.5736C36.252 20.5736 35.448 22.7126 34.377 24.5321C32.1165 28.3691 31.212 28.5716 30.843 28.3331C29.9835 27.7781 30.198 26.1011 30.198 24.9116C30.198 21.1916 30.762 19.6421 29.1 19.2416C28.548 19.1066 28.143 19.0196 26.73 19.0046C24.921 18.9851 23.388 19.0106 22.521 19.4351C21.942 19.7171 21.498 20.3486 21.771 20.3846C22.1055 20.4296 22.8645 20.5886 23.268 21.1376C23.7885 21.8426 23.769 23.4341 23.769 23.4341C23.769 23.4341 24.069 27.8111 23.0715 28.3556C22.386 28.7306 21.447 27.9686 19.4325 24.4856C18.75 23.273 18.1448 22.0185 17.6205 20.7296C17.6205 20.7296 17.4705 20.3636 17.202 20.1671C16.878 19.9271 16.422 19.8521 16.422 19.8521L11.5995 19.8821C11.5995 19.8821 10.8765 19.9031 10.6095 20.2181C10.374 20.4986 10.5915 21.0761 10.5915 21.0761C10.5915 21.0761 14.367 29.9081 18.6405 34.3616C22.563 38.4431 27.0135 38.1761 27.0135 38.1761H29.031C29.031 38.1761 29.64 38.1086 29.9505 37.7726C30.237 37.4651 30.2265 36.8876 30.2265 36.8876C30.2265 36.8876 30.186 34.1801 31.4445 33.7826C32.682 33.3896 34.2735 36.3971 35.9595 37.5551C37.233 38.4311 38.2005 38.2391 38.2005 38.2391L42.7095 38.1761C42.7095 38.1761 45.0675 38.0306 43.9485 36.1766L43.95 36.1751Z" fill="white"/>
</g>
<defs>
<clipPath id="clip0_728_790">
<rect width="56" height="56" fill="white"/>
</clipPath>
</defs>
</svg>
